# xmcd
#
# Track frame offsets:
#	150
#	15750
#	26827
#	43742
#	58290
#	73632
#	84917
#	98597
#	107315
#	116950
#	125362
#	138290
#	149707
#	163375
#	172905
#	194840
#	209445
#
# Disc length: 2971 seconds
#
# Revision: 1
# Processed by: cddbd v1.4PL0 Copyright (c) Steve Scherf et al.
# Submitted via: CDmax 1.9
#
DISCID=f60b9911
DTITLE=The Dubliners - The Best Vol 3
DYEAR=1900
DGENRE=Country
TTITLE0=Seven drunken Nights
TTITLE1=Lord of dance
TTITLE2=The Newry Highway Man
TTITLE3=Free the People
TTITLE4=Home boys home
TTITLE5=Holy Ground
TTITLE6=The west awake
TTITLE7=Humpty Dumpty
TTITLE8=For what died the Sons of Roison
TTITLE9=Johnsons Motor Car
TTITLE10=The Wild Rover
TTITLE11=High Germany
TTITLE12=School days over
TTITLE13=Hey Johnny McGory
TTITLE14=Foggy Dew
TTITLE15=Button Pusher
TTITLE16=Dirty old town
EXTD=
EXTT0=
EXTT1=
EXTT2=
EXTT3=
EXTT4=
EXTT5=
EXTT6=
EXTT7=
EXTT8=
EXTT9=
EXTT10=
EXTT11=
EXTT12=
EXTT13=
EXTT14=
EXTT15=
EXTT16=
PLAYORDER=
